<svg width="30" height="27" viewBox="0 0 30 27" fill="none" xmlns="http://www.w3.org/2000/svg">
<path d="M24.3 16.2H29.7V0H24.3M18.9 0H6.75C5.6295 0 4.671 0.675 4.266 1.647L0.189 11.1645C0.0675 11.475 0 11.799 0 12.15V14.85C0 15.5661 0.284464 16.2528 0.790812 16.7592C1.29716 17.2655 1.98392 17.55 2.7 17.55H11.2185L9.936 23.7195C9.909 23.8545 9.8955 23.9895 9.8955 24.138C9.8955 24.705 10.125 25.2045 10.4895 25.569L11.9205 27L20.8035 18.1035C21.303 17.6175 21.6 16.9425 21.6 16.2V2.7C21.6 1.98392 21.3155 1.29716 20.8092 0.790812C20.3028 0.284463 19.6161 0 18.9 0Z" fill="#699BF7"/>
</svg>
