<svg width="32" height="32" viewBox="0 0 32 32" fill="none" xmlns="http://www.w3.org/2000/svg">
<path d="M32 14.4C32 13.5513 31.6935 12.7374 31.1479 12.1373C30.6024 11.5371 29.8624 11.2 29.0909 11.2H19.8982L21.2945 3.888C21.3236 3.728 21.3382 3.552 21.3382 3.376C21.3382 2.72 21.0909 2.112 20.6982 1.68L19.1564 0L9.58545 10.528C9.04727 11.12 8.72727 11.92 8.72727 12.8V28.8C8.72727 29.6487 9.03377 30.4626 9.57933 31.0627C10.1249 31.6629 10.8648 32 11.6364 32H24.7273C25.9345 32 26.9673 31.2 27.4036 30.048L31.7964 18.768C31.9273 18.4 32 18.016 32 17.6V14.4ZM0 32H5.81818V12.8H0V32Z" fill="#699BF7"/>
</svg>
